<svg width="262" height="68" viewBox="0 0 262 68" fill="none" xmlns="http://www.w3.org/2000/svg">
<g filter="url(#filter0_dd_829_4251)">
<path d="M18 10.9394H26.872L34.398 29.2913H34.7454L42.2714 10.9394H51.1434V40.5803H44.1673V22.3731H43.9213L36.8005 40.3921H32.3428L25.2221 22.2718H24.976V40.5803H18V10.9394Z" fill="#D90000"/>
<path d="M66.8043 41C64.4693 41 62.4623 40.5224 60.7835 39.5672C59.1142 38.6023 57.8261 37.2611 56.9191 35.5436C56.0218 33.8165 55.5732 31.8144 55.5732 29.5373C55.5732 27.2506 56.0218 25.2485 56.9191 23.531C57.8261 21.8039 59.1142 20.4627 60.7835 19.5075C62.4623 18.5426 64.4693 18.0602 66.8043 18.0602C69.1393 18.0602 71.1414 18.5426 72.8106 19.5075C74.4895 20.4627 75.7776 21.8039 76.6749 23.531C77.5819 25.2485 78.0354 27.2506 78.0354 29.5373C78.0354 31.8144 77.5819 33.8165 76.6749 35.5436C75.7776 37.2611 74.4895 38.6023 72.8106 39.5672C71.1414 40.5224 69.1393 41 66.8043 41ZM66.8477 35.6594C67.6968 35.6594 68.4156 35.3989 69.0042 34.8779C69.5927 34.3569 70.0414 33.6332 70.3502 32.7069C70.6686 31.7806 70.8278 30.7096 70.8278 29.4939C70.8278 28.2589 70.6686 27.1782 70.3502 26.2519C70.0414 25.3256 69.5927 24.602 69.0042 24.081C68.4156 23.5599 67.6968 23.2994 66.8477 23.2994C65.9696 23.2994 65.2267 23.5599 64.6188 24.081C64.0206 24.602 63.5623 25.3256 63.2439 26.2519C62.9351 27.1782 62.7807 28.2589 62.7807 29.4939C62.7807 30.7096 62.9351 31.7806 63.2439 32.7069C63.5623 33.6332 64.0206 34.3569 64.6188 34.8779C65.2267 35.3989 65.9696 35.6594 66.8477 35.6594Z" fill="#D90000"/>
<path d="M103.325 18.3496L95.6972 40.5803H87.5923L79.9794 18.3496H87.433L91.5289 33.6621H91.7605L95.8709 18.3496H103.325Z" fill="#D90000"/>
<path d="M106.853 40.5803V18.3496H113.931V40.5803H106.853ZM110.399 15.7589C109.405 15.7589 108.552 15.4309 107.838 14.7748C107.123 14.109 106.766 13.3082 106.766 12.3722C106.766 11.446 107.123 10.6548 107.838 9.99864C108.552 9.33288 109.405 9 110.399 9C111.403 9 112.257 9.33288 112.961 9.99864C113.675 10.6548 114.032 11.446 114.032 12.3722C114.032 13.3082 113.675 14.109 112.961 14.7748C112.257 15.4309 111.403 15.7589 110.399 15.7589Z" fill="#D90000"/>
<path d="M123.404 40.5803L117.615 18.3496H124.721L127.717 32.5911H127.905L131.118 18.3496H138.051L141.351 32.4898H141.539L144.448 18.3496H151.554L145.751 40.5803H138.181L134.708 27.6269H134.462L130.988 40.5803H123.404Z" fill="#D90000"/>
<path d="M161.477 40.9566C160.058 40.9566 158.799 40.7202 157.699 40.2474C156.609 39.765 155.745 39.0413 155.109 38.0764C154.481 37.1019 154.168 35.8814 154.168 34.4147C154.168 33.1797 154.385 32.1376 154.819 31.2886C155.253 30.4395 155.852 29.7496 156.614 29.2189C157.376 28.6882 158.254 28.2878 159.248 28.0176C160.242 27.7378 161.303 27.5497 162.432 27.4532C163.696 27.3374 164.714 27.2168 165.486 27.0914C166.258 26.9563 166.817 26.7681 167.165 26.5269C167.522 26.276 167.7 25.9239 167.7 25.4704V25.398C167.7 24.6551 167.445 24.081 166.933 23.6757C166.422 23.2705 165.732 23.0678 164.863 23.0678C163.928 23.0678 163.175 23.2705 162.606 23.6757C162.036 24.081 161.675 24.6406 161.52 25.3546L154.993 25.123C155.186 23.7722 155.683 22.5661 156.484 21.5048C157.294 20.4337 158.404 19.5943 159.812 18.9864C161.231 18.3689 162.934 18.0602 164.921 18.0602C166.34 18.0602 167.647 18.229 168.844 18.5667C170.04 18.8948 171.082 19.3772 171.97 20.014C172.857 20.6412 173.543 21.4131 174.025 22.3297C174.517 23.2463 174.763 24.2932 174.763 25.4704V40.5803H168.105V37.483H167.932C167.536 38.2356 167.03 38.8725 166.412 39.3935C165.804 39.9145 165.085 40.3053 164.256 40.5658C163.435 40.8263 162.509 40.9566 161.477 40.9566ZM163.662 36.3252C164.424 36.3252 165.11 36.1708 165.717 35.8621C166.335 35.5533 166.827 35.1288 167.194 34.5884C167.56 34.0384 167.744 33.4016 167.744 32.678V30.5649C167.541 30.671 167.295 30.7675 167.006 30.8544C166.726 30.9412 166.417 31.0232 166.079 31.1004C165.742 31.1776 165.394 31.2451 165.037 31.303C164.68 31.3609 164.338 31.414 164.01 31.4622C163.344 31.5684 162.775 31.7324 162.302 31.9543C161.839 32.1762 161.482 32.4657 161.231 32.8227C160.99 33.1701 160.869 33.585 160.869 34.0674C160.869 34.8007 161.129 35.3603 161.65 35.7463C162.181 36.1322 162.852 36.3252 163.662 36.3252Z" fill="#D90000"/>
<path d="M192.454 18.3496V23.5599H178.429V18.3496H192.454ZM181.367 13.0235H188.445V33.5898C188.445 34.024 188.512 34.3761 188.647 34.6463C188.792 34.9068 189 35.095 189.27 35.2108C189.54 35.3169 189.863 35.37 190.239 35.37C190.51 35.37 190.794 35.3458 191.093 35.2976C191.402 35.2397 191.634 35.1915 191.788 35.1529L192.859 40.2619C192.521 40.3584 192.044 40.479 191.426 40.6237C190.818 40.7684 190.09 40.8601 189.241 40.8987C187.581 40.9759 186.158 40.7829 184.971 40.3198C183.794 39.847 182.892 39.1137 182.265 38.1199C181.647 37.126 181.348 35.8765 181.367 34.3713V13.0235Z" fill="#D90000"/>
<path d="M207.018 41C204.674 41 202.662 40.5176 200.983 39.5527C199.314 38.5878 198.031 37.2466 197.133 35.5292C196.236 33.8021 195.787 31.8048 195.787 29.5373C195.787 27.2602 196.236 25.2629 197.133 23.5455C198.04 21.8183 199.328 20.4723 200.998 19.5075C202.676 18.5426 204.679 18.0602 207.004 18.0602C209.059 18.0602 210.849 18.4316 212.373 19.1746C213.908 19.9175 215.104 20.9692 215.963 22.3297C216.831 23.6805 217.289 25.2678 217.338 27.0914H210.723C210.588 25.9528 210.202 25.0603 209.566 24.4138C208.938 23.7674 208.118 23.4441 207.105 23.4441C206.285 23.4441 205.566 23.6757 204.949 24.1389C204.331 24.5923 203.849 25.2678 203.501 26.1651C203.164 27.0528 202.995 28.1527 202.995 29.4649C202.995 30.7772 203.164 31.8868 203.501 32.7938C203.849 33.6911 204.331 34.3713 204.949 34.8345C205.566 35.288 206.285 35.5147 207.105 35.5147C207.761 35.5147 208.34 35.3748 208.842 35.095C209.353 34.8152 209.773 34.4051 210.101 33.8648C210.429 33.3148 210.637 32.649 210.723 31.8675H217.338C217.27 33.7007 216.812 35.3024 215.963 36.6725C215.123 38.0427 213.941 39.1089 212.417 39.8711C210.902 40.6237 209.102 41 207.018 41Z" fill="#D90000"/>
<path d="M228.852 27.9019V40.5803H221.775V10.9394H228.62V22.431H228.867C229.368 21.0609 230.188 19.9899 231.327 19.218C232.475 18.4461 233.879 18.0602 235.539 18.0602C237.102 18.0602 238.462 18.4075 239.62 19.1022C240.778 19.7873 241.675 20.757 242.312 22.0113C242.958 23.2656 243.277 24.7322 243.267 26.4111V40.5803H236.19V27.8005C236.2 26.5655 235.891 25.6006 235.264 24.9059C234.636 24.2112 233.754 23.8639 232.615 23.8639C231.872 23.8639 231.216 24.0279 230.647 24.3559C230.087 24.6744 229.648 25.1327 229.33 25.7309C229.021 26.3291 228.862 27.0528 228.852 27.9019Z" fill="#D90000"/>
</g>
<defs>
<filter id="filter0_dd_829_4251" x="0" y="0" width="261.267" height="68" filterUnits="userSpaceOnUse" color-interpolation-filters="sRGB">
<feFlood flood-opacity="0" result="BackgroundImageFix"/>
<feColorMatrix in="SourceAlpha" type="matrix" values="0 0 0 0 0 0 0 0 0 0 0 0 0 0 0 0 0 0 127 0" result="hardAlpha"/>
<feOffset dy="9"/>
<feGaussianBlur stdDeviation="9"/>
<feComposite in2="hardAlpha" operator="out"/>
<feColorMatrix type="matrix" values="0 0 0 0 1 0 0 0 0 0 0 0 0 0 0 0 0 0 0.15 0"/>
<feBlend mode="normal" in2="BackgroundImageFix" result="effect1_dropShadow_829_4251"/>
<feColorMatrix in="SourceAlpha" type="matrix" values="0 0 0 0 0 0 0 0 0 0 0 0 0 0 0 0 0 0 127 0" result="hardAlpha"/>
<feOffset dy="1"/>
<feGaussianBlur stdDeviation="1.5"/>
<feComposite in2="hardAlpha" operator="out"/>
<feColorMatrix type="matrix" values="0 0 0 0 1 0 0 0 0 0 0 0 0 0 0 0 0 0 0.3 0"/>
<feBlend mode="normal" in2="effect1_dropShadow_829_4251" result="effect2_dropShadow_829_4251"/>
<feBlend mode="normal" in="SourceGraphic" in2="effect2_dropShadow_829_4251" result="shape"/>
</filter>
</defs>
</svg>
